Motion_pl07
version=1
nRows=5
nColumns=43
inDegrees=yes
endheader
time	pelvis_tilt	pelvis_list	pelvis_rotation	pelvis_tx	pelvis_ty	pelvis_tz	hip_flexion_r	hip_adduction_r	hip_rotation_r	knee_angle_r	ankle_angle_r	subtalar_angle_r	mtp_angle_r	hip_flexion_l	hip_adduction_l	hip_rotation_l	knee_angle_l	ankle_angle_l	subtalar_angle_l	mtp_angle_l	lumbar_extension	lumbar_bending	lumbar_rotation	neck_flexion	neck_lateral_bending	neck_rotation	arm_flex_r	arm_add_r	arm_rot_r	elbow_flex_r	pro_sup_r	wrist_flex_r	wrist_dev_r	hand_finger_flex_r	arm_flex_l	arm_add_l	arm_rot_l	elbow_flex_l	pro_sup_l	wrist_flex_l	wrist_dev_l	hand_finger_flex_l
      1.19750000	     -4.88052633	    -13.71762766	     94.85553427	      0.01665417	      1.67800280	      1.77208625	     94.14927346	    -15.73954637	      9.65852910	   -128.52613269	     27.21287001	     19.00955655	     26.84635758	     90.71938112	     -6.40752150	      3.01193770	   -123.41456990	     28.18325230	     21.73126293	     16.48123197	    -42.93595614	     -2.22285145	     -1.95612949	      9.38942846	      5.26238953	     -5.66354035	     11.31103246	    -59.67932625	    -96.62144573	    124.42458688	    144.98127900	     18.76950809	     23.72734216	     -1.90290638	     21.65931338	    -67.54456585	    -70.06901324	    110.71402046	    139.35401779	      2.75868056	     31.62808683	     12.97903513
      1.20000000	     -4.84919252	    -13.66816164	     94.85793717	      0.01699753	      1.67779441	      1.77215381	     94.11234278	    -15.74280361	      9.61141855	   -128.56535245	     27.16627173	     19.06486997	     26.90656113	     90.71997806	     -6.42880634	      3.15992808	   -123.42480104	     28.15845342	     21.68427994	     16.50819720	    -42.93614252	     -2.25717315	     -1.94757274	      9.20099994	      5.26532663	     -5.69654595	     11.06535717	    -59.77267739	    -96.66272350	    124.34579404	    144.81518727	     18.83142916	     23.93008487	     -1.89283628	     21.40638024	    -67.90094129	    -70.10032818	    110.50217686	    139.26250745	      2.76294500	     31.62474651	     12.95628917
      1.20250000	     -4.84810281	    -13.66712196	     94.85753713	      0.01702411	      1.67784683	      1.77216071	     94.11268385	    -15.74338606	      9.61172733	   -128.56534743	     27.16629968	     19.06488729	     26.90667844	     90.71968045	     -6.42858422	      3.15987171	   -123.42493785	     28.15836666	     21.68433875	     16.50825457	    -42.93507715	     -2.25762832	     -1.94729959	      9.20087673	      5.26542571	     -5.69658193	     11.06510357	    -59.77333102	    -96.66292399	    124.34666885	    144.81483351	     18.83138083	     23.93036080	     -1.89286598	     21.40638450	    -67.90129008	    -70.10088206	    110.50276199	    139.26233999	      2.76277969	     31.62476484	     12.95623647
      1.20500000	     -4.84744331	    -13.66648841	     94.85710610	      0.01704673	      1.67788081	      1.77217011	     94.11281264	    -15.74388891	      9.61201910	   -128.56537115	     27.16630891	     19.06490022	     26.90673897	     90.71949579	     -6.42850698	      3.15998046	   -123.42495812	     28.15830963	     21.68436248	     16.50828311	    -42.93432229	     -2.25786382	     -1.94721793	      9.20079672	      5.26547007	     -5.69660262	     11.06490421	    -59.77376366	    -96.66303854	    124.34711486	    144.81463796	     18.83137847	     23.93050622	     -1.89287267	     21.40637643	    -67.90156373	    -70.10119513	    110.50302787	    139.26224522	      2.76270353	     31.62477294	     12.95621308
      1.20750000	     -4.84670158	    -13.66581601	     94.85647773	      0.01707246	      1.67791223	      1.77217744	     94.11291531	    -15.74455948	      9.61241432	   -128.56538858	     27.16631043	     19.06492201	     26.90680026	     90.71928637	     -6.42847227	      3.16022303	   -123.42488452	     28.15823498	     21.68438080	     16.50831063	    -42.93348840	     -2.25810472	     -1.94719100	      9.20069213	      5.26549983	     -5.69662350	     11.06462553	    -59.77426198	    -96.66315306	    124.34755051	    144.81442656	     18.83139749	     23.93064725	     -1.89287120	     21.40635329	    -67.90191435	    -70.10153284	    110.50324062	    139.26213898	      2.76263830	     31.62478177	     12.95619359
